<svg xmlns="http://www.w3.org/2000/svg" width="64" height="64" viewBox="0 0 100 100">
  <circle cx="50" cy="50" r="48" fill="#1a1611" stroke="#d4af37" stroke-width="2"></circle>
  <g stroke="#d4af37" stroke-width="1.5" fill="none" opacity="0.8">
    <path d="M50 5 Q55 20, 75 25 Q55 30, 50 50 Q45 30, 25 25 Q45 20, 50 5 Z"></path>
    <path d="M50 95 Q55 80, 75 75 Q55 70, 50 50 Q45 70, 25 75 Q45 80, 50 95 Z"></path>
    <path d="M5 50 Q20 55, 25 75 Q30 55, 50 50 Q30 45, 25 25 Q20 45, 5 50 Z"></path>
    <path d="M95 50 Q80 55, 75 75 Q70 55, 50 50 Q70 45, 75 25 Q80 45, 95 50 Z"></path>
  </g>
  <circle cx="50" cy="50" r="5" fill="#d4af37" opacity="0.9"></circle>
</svg>
